<?xml version="1.0" encoding="UTF-8"?>
<svg width="256px" height="215px" viewBox="0 0 256 215" version="1.1" xmlns="http://www.w3.org/2000/svg" xmlns:xlink="http://www.w3.org/1999/xlink">
    <!-- Generator: Sketch 53 (72520) - https://sketchapp.com -->
    <title>Shape</title>
    <desc>Created with Sketch.</desc>
    <g id="Page-1" stroke="none" stroke-width="1" fill="none" fill-rule="evenodd">
        <g id="logo-flask-2" fill="#FFFFFF" fill-rule="nonzero">
            <g id="logo-flask">
                <path d="M76.5012561,191.090139 C66.7512704,183.882579 56.3482856,176.975725 49.241296,167.243169 C34.2803179,150.080343 22.7643347,130.213976 14.8913462,109.333664 C10.1313532,95.7548836 8.50135558,81.1978671 2.36136457,68.1462627 C-4.05262605,58.6636693 3.46636295,48.3052681 14.5183468,45.2925642 C19.4353396,44.4017211 28.0863269,40.0395965 17.6433422,43.1613065 C8.27935591,49.6133416 7.37735723,37.2975286 16.9773432,36.517571 C23.5293336,35.7009647 25.9413301,30.6631902 23.6983333,26.1281594 C16.6623436,21.8148997 40.7533084,17.0825302 28.6303261,10.6483496 C16.0103446,-2.15047335 46.2903003,-4.61438771 38.8183112,9.92383469 C37.0323138,21.1016613 59.9842803,7.87057272 54.6542881,20.7812209 C60.0692801,26.9823539 74.9262584,22.1954814 74.5532589,30.8896598 C82.4392474,31.3989815 85.1462434,37.6301852 92.5412326,38.1094363 C100.218221,41.3664642 114.121201,43.9281082 116.729197,52.0518839 C109.119208,57.7117451 91.5022341,40.3590973 90.6512354,56.0287281 C92.953232,79.1812537 92.3662329,103.030103 101.37722,125.076592 C105.639213,138.424205 115.977198,148.93108 125.308185,159.328949 C134.241172,169.509745 146.338154,176.681597 158.671136,182.715462 C169.48612,187.507972 181.146103,190.684185 192.936086,192.682005 C197.716079,189.246432 206.157066,176.472042 213.611055,181.854689 C213.971055,187.914866 198.815077,194.513495 212.900057,193.843484 C221.178044,191.496093 226.913036,199.851977 233.726026,192.312699 C240.004017,199.300368 259.815988,187.851905 255.350994,202.132648 C249.309003,205.79563 240.501016,203.582617 234.453025,208.622271 C224.48104,203.939706 216.541051,212.806791 205.497067,211.688538 C193.237085,213.752137 180.759104,214.582839 168.330122,214.599754 C147.934152,213.087764 127.108182,212.449702 107.70621,205.775896 C96.7732264,202.791383 86.108242,196.940761 76.5012561,191.090139 Z M93.7252309,198.107879 C104.397215,202.439932 114.8342,207.011612 126.532183,208.393922 C145.090156,210.81555 164.255128,214.550889 182.8781,211.147267 C174.450113,207.571678 165.733126,212.536155 157.337138,208.591261 C147.267153,210.624789 136.459168,208.068783 126.217183,206.808635 C114.5772,201.937189 102.011219,198.588069 91.1102347,192.257257 C77.4822547,187.582209 98.1532244,198.255413 101.834219,199.122763 C110.348207,203.661553 92.4692327,196.792287 89.9442364,194.906293 C82.8122469,191.145582 81.9042482,191.932118 89.2402375,195.748272 C90.7172353,196.560179 92.1762332,197.414374 93.7252309,198.107879 L93.7252309,198.107879 Z M73.4152606,184.62025 C83.7602455,188.221211 73.3692607,177.786693 68.6352676,178.389986 C66.5352707,174.966629 60.6122793,172.803422 64.7902732,170.966292 C57.2772842,173.41893 56.9172847,161.644389 53.3872899,163.329286 C45.4353015,160.969679 50.2932944,152.611916 40.8183083,147.476412 C39.9543096,142.067452 31.4083221,137.379249 28.688326,129.224463 C27.4853278,125.046522 19.0303402,113.058667 24.2223326,124.21582 C28.6423261,134.956682 36.4173147,144.163001 42.8913053,153.349587 C47.9132979,162.098268 53.8512892,171.249145 62.9992758,176.706029 C66.0862713,179.489444 69.060267,183.747261 73.4142606,184.62025 L73.4152606,184.62025 Z M118.979194,202.691774 C123.216188,205.205493 143.717158,208.197523 130.881177,203.723574 C128.72818,204.148322 107.078211,197.965983 118.979194,202.691774 L118.979194,202.691774 Z M72.1602624,166.972534 C77.1302552,170.553761 92.2102331,167.43299 79.7712513,164.834698 C74.1152596,162.001478 61.3642782,160.060981 70.0562655,166.543087 L72.1602624,166.972534 Z M96.2232272,178.95381 C108.373209,182.180768 86.0032422,171.727456 93.2232316,177.762261 L94.8262293,178.444489 L96.2232272,178.95381 Z M96.3292271,172.903031 C105.156214,173.970539 85.8212425,167.255386 94.3872299,172.299738 L96.3292271,172.903031 Z M127.009182,190.629682 C135.25617,186.0035 132.536174,201.475792 140.998162,191.938696 C149.34115,186.212115 133.791172,199.017516 144.071157,192.959218 C151.512146,188.282292 162.49713,195.176929 169.43612,197.420012 C174.424113,197.192603 179.277106,201.475792 184.396098,198.869042 C194.244084,196.374117 165.133126,195.171291 172.763115,190.751844 C163.753128,193.217638 157.097138,187.815257 152.663145,182.389383 C142.553159,180.195165 130.868177,175.341573 125.820184,166.929307 C123.760187,163.777526 128.79018,167.378487 124.042187,162.216671 C117.954195,157.128153 114.9142,151.34519 110.826206,145.158152 C105.941213,142.712092 105.366214,135.504532 104.875215,144.919466 C104.915215,138.976753 98.9772232,134.976416 97.5252253,136.63594 C97.4992254,130.914058 103.882216,133.783927 99.4152226,129.550542 C98.455224,123.620045 95.2892286,117.439585 94.34023,110.741347 C92.8642322,107.515329 94.1302303,100.602837 89.2932374,107.908127 C87.53324,115.632527 88.7112382,98.4208352 91.4512342,104.092913 C95.047229,98.3043114 90.1552361,98.9855997 89.9592364,99.7852912 C92.301233,94.9006891 91.4442342,87.9684632 89.3452373,90.6109221 C90.5942355,85.4303119 91.3202344,71.5498851 87.48224,74.0137994 C89.8092366,68.5945034 91.8962336,49.2243025 81.7852484,56.6122868 C77.6922544,56.6667898 70.5982647,58.0077531 67.2502696,59.5742464 C77.7582543,65.0189145 66.1902712,61.5401155 61.9072774,60.6737047 C61.3512783,65.712419 57.1142845,63.536995 51.8172922,63.5858598 C60.2792798,64.5687944 47.6972982,71.714334 42.8533053,68.9384365 C36.5493145,71.7650782 48.2872974,78.8316823 42.9773051,81.0183828 C43.6323042,84.3064211 33.3253193,79.8277728 34.1303181,87.434709 C28.015327,85.0121418 33.2933193,96.4549661 36.3533148,92.5843088 C46.7572996,95.232406 43.6773041,101.260633 43.9383037,106.992852 C42.2443062,110.328815 35.568316,99.1462898 42.4533059,99.6631292 C37.0193139,91.3720855 36.4453147,96.6635813 31.9323213,100.516384 C30.8863228,100.793598 43.4413045,105.996761 35.562316,108.565923 C42.4933058,109.574229 42.6963056,115.276378 44.1093035,118.883917 C48.2742974,122.962249 47.4162986,114.378017 52.4072913,119.283292 C49.247296,114.91365 35.6923158,106.973118 46.6072998,109.519726 C46.5472999,105.125652 44.6313027,101.579194 47.9792978,101.664707 C51.295293,96.0302181 44.5073029,115.564868 51.975292,108.400534 C54.040289,107.552918 54.5582882,102.759467 58.2722828,108.855353 C63.6662749,113.845202 60.2212799,117.4565 52.609291,112.88576 C53.9692891,117.23003 62.7902762,118.77773 61.1292786,125.568999 C62.887276,131.541783 65.3472724,129.340987 67.4912693,128.997054 C69.1712668,134.797871 70.1282654,130.533477 70.2062653,127.767916 C77.902254,129.318434 76.0972567,133.594105 78.5092532,136.580498 C83.8122454,138.828279 70.9182643,121.334675 80.0212509,131.320012 C89.5992369,139.449426 83.6172457,142.840832 75.0192583,141.539337 C80.4592503,141.125865 82.2102477,148.452768 89.0192378,148.194349 C95.2242287,150.971186 99.4292225,161.626535 88.7312382,157.189234 C85.0232436,154.043091 71.8852628,150.165856 82.6172471,156.145218 C92.5172327,160.458478 100.390221,163.033278 109.943207,168.447875 C116.777197,173.031771 119.731193,178.283799 122.321189,179.324055 C116.574197,181.903554 105.007214,177.265155 113.598202,175.846196 C108.23621,174.929981 102.208218,172.380553 107.340211,178.654044 C111.708205,182.083038 122.805188,181.719371 124.800185,182.106531 C123.113188,185.597546 120.217192,185.87476 124.865185,186.144456 C119.679193,188.743688 126.533183,189.149642 127.010182,190.629682 L127.009182,190.629682 Z M116.403198,162.480729 C113.245202,159.377813 112.428204,153.571358 115.841199,158.620409 C117.594196,159.284782 121.44619,168.116158 116.403198,162.480729 Z M96.1722273,131.172478 C92.4122328,123.258257 98.8402234,126.846062 97.0092261,132.469275 L96.1722273,131.172478 Z M61.548278,109.47462 C59.8682804,106.876328 57.0882845,99.2562356 57.9842832,96.9285789 C58.788282,100.719361 66.5572706,113.236271 61.7892776,102.114827 C56.5262853,92.792924 68.0872684,105.136928 69.2772667,107.466464 C69.8332658,109.777206 66.0272714,106.834041 68.6032676,112.258975 C63.9022745,106.083214 65.8302717,115.670115 61.548278,109.47462 Z M44.0823035,95.6872246 C40.0993094,91.9622221 37.2153136,88.5341674 44.2713032,93.375543 C46.9852993,93.4742123 38.2303121,85.5787857 44.9263023,90.868402 C51.961292,92.0740474 48.3972972,101.715451 44.0823035,95.6872246 Z M46.4693,89.9850765 C34.889317,80.2929283 61.0182787,95.0472835 48.3592973,91.7780394 L46.4693,89.9850765 Z M79.6542515,108.098888 C74.6392588,105.277884 78.3202534,88.2212446 80.0342509,99.8839606 C84.9062438,98.402041 79.7642513,105.912187 83.394246,105.83795 C82.8262468,110.574079 81.1982492,112.278709 79.6542515,108.098888 Z M48.7372967,86.8013458 C41.2973076,77.1533638 70.3622651,96.558334 53.5052897,89.2474057 C51.7452923,88.8113812 49.6212954,88.6572691 48.7372967,86.8013458 Z M49.882295,83.1205096 C54.3032886,82.2296664 68.2042682,90.4145231 55.4402869,85.455684 C54.022289,83.9803424 50.9942934,84.6503542 49.882295,83.1195699 L49.882295,83.1205096 Z M87.8532395,100.903544 C88.3262388,92.596525 90.4972356,95.9447046 87.8732395,102.096033 L87.8532395,100.902604 L87.8532395,100.903544 Z M53.1712902,80.2271487 C54.9752876,77.7435005 48.3832972,69.0004573 54.1182888,77.0922828 C56.5982852,78.9416282 61.2912783,80.1895604 57.1462844,80.969518 C63.6652749,86.3718993 55.5582867,82.4326434 53.1712902,80.2271487 Z M81.9932481,75.7776313 C79.6922514,71.9727537 84.8982438,59.0019642 85.480243,67.0458646 C83.0532465,73.313717 84.780244,76.8169484 86.4662415,68.4103206 C89.5932369,61.7985352 85.7932425,81.468503 81.9932481,75.7776313 Z M91.5222341,168.49674 C98.1062245,170.088605 98.0742245,167.537298 92.1222332,166.775195 C88.9252379,163.980503 78.8222527,161.011966 87.8662395,166.431262 C88.4622386,167.857738 90.3522358,167.82015 91.5222341,168.49674 Z M68.1522683,153.907773 C71.774263,156.453442 81.8112483,161.109695 73.3172608,154.880371 C76.1812566,151.751143 67.8372688,150.086921 70.6042647,147.992311 C63.561275,143.94123 65.0442729,144.303958 69.9832656,144.433637 C61.521278,140.874963 71.2052638,141.145599 70.7482645,139.321626 C67.4852693,138.718333 54.5372882,133.912667 62.1552771,139.714424 C54.4132884,136.008215 60.3102798,141.096734 57.9702832,140.56204 C50.0502948,138.53415 65.0202729,146.228479 56.714285,144.317113 C61.2532784,147.696303 68.9362672,152.981221 58.6302822,147.892702 C57.2772842,149.729831 66.0072714,152.514186 68.1512683,153.907773 L68.1522683,153.907773 Z M150.406148,199.238347 C153.878143,196.080928 150.550148,204.277062 156.16014,198.464968 C156.218139,194.303941 155.99014,191.847544 149.713149,196.903173 C147.979152,197.807172 147.209153,201.634603 150.406148,199.239287 L150.406148,199.238347 Z M93.5422312,164.932427 C97.4082255,168.159385 111.283205,167.298612 98.2322243,165.332743 C96.3022271,162.647058 85.9642422,163.292637 93.5422312,164.932427 Z M29.9173242,124.770247 C24.3073325,117.248825 26.4323293,113.868695 21.0183373,107.723944 C19.9903388,103.023525 11.7333509,92.368176 16.7483435,103.655948 C21.3383368,110.262096 22.6983348,120.486119 29.9183242,124.770247 L29.9173242,124.770247 Z M165.563126,201.370545 C171.435117,197.81375 164.210128,198.35972 164.498127,201.695684 L165.563126,201.370545 Z M174.986112,203.774318 C182.512101,198.672643 170.429119,202.796082 173.410114,204.745036 L174.986112,203.774318 Z M48.7372967,128.161654 C54.2492886,129.322193 70.7792645,140.923828 61.0302787,128.966983 C56.035286,127.578095 59.0302817,116.1052 53.9362891,118.13309 C57.3562841,123.503521 56.746285,125.782313 49.5662955,122.404063 C40.5503087,118.26183 44.4993029,124.450747 46.2663003,126.159136 C43.8583039,126.675036 49.4432957,128.119367 48.7362967,128.160714 L48.7372967,128.161654 Z M23.6073335,109.513148 C24.594332,105.671622 14.5113468,88.3988494 18.8473404,100.854679 C20.4093382,103.466127 20.2473384,108.411811 23.6073335,109.513148 L23.6073335,109.513148 Z M196.166081,199.023154 C201.626073,197.984777 214.070055,201.635542 216.077052,197.666216 C209.447062,197.512104 193.145085,193.265563 192.373087,198.672643 L193.825084,198.888776 L196.167081,199.023154 L196.166081,199.023154 Z M26.1203298,87.4582017 C31.6263217,85.4303119 16.0943445,83.2548879 24.9953314,87.07762 L26.1203298,87.4582017 Z M8.92735496,69.387617 C7.93335641,64.029402 8.07035621,54.6210455 17.5853423,57.7981983 C4.88536087,60.1700212 26.3803294,72.6361875 23.6663334,62.7927462 C29.0083256,63.0398895 34.1163181,59.8260881 31.3103222,64.6975344 C41.8383068,63.6102922 49.1302961,55.0326376 59.2972813,56.2373433 C67.2152697,55.2487705 75.873257,54.5045217 84.4072445,51.5059135 C91.4232343,51.0323007 98.1772244,43.9346862 94.33423,39.7257341 C84.767244,38.9645706 74.7482587,40.0884614 64.1752741,42.0674864 C52.4582913,44.3528562 41.8133068,48.7027646 29.9893241,50.5718438 C18.460341,52.0283912 32.3043208,54.5778189 29.0013256,55.1491614 C22.9913344,57.1093923 36.1753151,58.4306217 28.2233267,60.5007984 C23.3133339,59.6231112 18.1993414,58.0378238 20.2983383,53.1710761 C9.26035447,54.5223762 -0.443631331,58.8234197 8.28035591,69.3800993 L8.92835496,69.3857375 L8.92735496,69.387617 Z M35.535316,56.6545736 C38.1183123,47.6963373 49.3972957,64.029402 39.7723098,57.8470631 C38.6273115,57.0351554 36.7303143,56.3773598 35.535316,56.6545736 Z M40.7783084,52.3845405 C41.1203079,48.2611018 51.6412925,54.5656027 42.5123058,53.8655203 L40.7783084,52.3836008 L40.7783084,52.3845405 Z M48.9272964,48.8888267 C52.8762907,44.4336711 71.2702637,46.0424512 57.8062834,48.4509228 C54.1962887,45.8949171 51.4312928,49.956335 48.9272964,48.8888267 Z M79.7522513,45.3724394 C82.2422477,39.2408447 89.4222372,42.9094648 80.9092496,44.1376631 C81.0912494,44.7954587 80.65425,47.3091776 79.7522513,45.3724394 Z M239.958017,199.103969 C245.903008,199.122763 257.971991,197.36363 245.03801,197.370208 C243.005012,197.666216 233.210027,197.605135 239.958017,199.103969 Z M35.1103167,76.8207072 C39.9233096,76.5134227 42.6363056,71.836496 34.174318,72.1014937 C21.0643372,70.8300687 45.7413011,76.3236017 32.4943205,74.7505305 C30.7163231,75.8565668 35.0043168,77.1279917 35.1103167,76.8207072 Z M28.3673265,41.1024063 C36.9603139,38.3622178 48.7042968,35.2771564 52.7592908,42.4555858 C48.6322969,37.791815 51.0922933,33.1947635 54.9892876,40.0217421 C60.5012795,46.9229576 63.2592755,36.8821777 59.6762807,34.5648578 C63.7642747,39.3329361 68.4062679,41.589175 62.4092767,34.8674437 C68.9292672,27.4991933 49.3642958,35.8315841 44.9183023,35.745131 C42.7803054,36.6472507 22.8293346,40.5254256 28.3683265,41.1024063 L28.3673265,41.1024063 Z M33.4023191,32.0464403 C38.301312,28.575159 50.3452944,34.116617 42.6163057,28.5920737 C41.8583068,27.9662282 25.6943304,32.7831714 33.4023191,32.0464403 Z M51.261293,32.7399448 C56.9892846,32.8752628 48.7902966,25.5013741 55.6162866,28.8439155 C54.4982883,25.4036445 47.6652983,24.7580651 44.3243032,23.3823326 C42.4343059,26.528475 48.1672975,32.7831714 51.261293,32.7399448 L51.261293,32.7399448 Z M43.8343039,19.146129 C53.0722904,17.9978058 41.4783073,15.4107897 41.9683066,19.0549773 L43.8333039,19.146129 L43.8343039,19.146129 Z M30.2043238,9.13072114 C23.6973333,1.14884143 42.4393059,10.4707447 35.8273156,2.11298183 C30.2633237,-2.04616576 24.9213316,6.80212473 30.2043238,9.13072114 L30.2043238,9.13072114 Z M113.674202,51.3771735 C116.658197,46.4108168 101.36222,44.6789349 111.667205,49.6180401 C112.615203,49.9140482 112.401204,51.7201669 113.674202,51.3771735 Z" id="Shape"></path>
            </g>
        </g>
    </g>
</svg>